# xmcd CD database file
#
# Track frame offsets:
#	150
#	15980
#	29410
#	41423
#	52518
#	66020
#	81618
#	94405
#	110140
#	124188
#	139763
#	149253
#	162423
#	178530
#	191958
#	206375
#
# Disc length: 2940 seconds
#
# Revision: 2
# Processed by: cddbd v1.5.2PL0 Copyright (c) Steve Scherf et al.
# Submitted via: CDex 1.70beta1
#
DISCID=e20b7a10
DTITLE=Orlando Silva - Francisco Alves - Silvio Caldas - Carlos Galhardo - Acervo Especial - Os Quatro Grandes
DYEAR=1900
DGENRE=
TTITLE0=Labios Que Beijei
TTITLE1=Boa Noite Amor
TTITLE2=Da Cor Do Pecado
TTITLE3=Facinação
TTITLE4=Coqueiro Velho
TTITLE5=Serra Da Boa Esperança
TTITLE6=Mulher
TTITLE7=Maringa
TTITLE8=Enquanto Houver Saudade
TTITLE9=Foi Ela
TTITLE10=Velho Realejo
TTITLE11=Devolve
TTITLE12=Nada Alem
TTITLE13=Longe Dos Olhos
TTITLE14=Serenata
TTITLE15=Bodas De Prata
EXTD=
EXTT0=
EXTT1=
EXTT2=
EXTT3=
EXTT4=
EXTT5=
EXTT6=
EXTT7=
EXTT8=
EXTT9=
EXTT10=
EXTT11=
EXTT12=
EXTT13=
EXTT14=
EXTT15=
PLAYORDER=
